# xmcd
#
# Track frame offsets:
#	150
#	14570
#	30822
#	48377
#	65160
#	83583
#	97457
#	113174
#	132561
#	154416
#
# Disc length: 2383 seconds
#
# Revision: 1
# Processed by: cddbd v1.5.1PL0 Copyright (c) Steve Scherf et al.
# Submitted via: audiograbber 1.82.02
#
DISCID=88094d0a
DTITLE=Dave Insley - Call Me Lonesome
DYEAR=2005
DGENRE=Country
TTITLE0=Dave Insley - There's Gonna Be A Few Changes
TTITLE1=Dave Insley - I'm Afraid Of Dyin'
TTITLE2=Dave Insley - Laid To Waste
TTITLE3=Dave Insley - Maricopa Mountains
TTITLE4=Dave Insley - Just Call Me Lonesome
TTITLE5=Dave Insley - After I Died
TTITLE6=Dave Insley - Roy Boy
TTITLE7=Dave Insley - Gilded Cage
TTITLE8=Dave Insley - Cowboy Lullaby
TTITLE9=Dave Insley - Own A Mountain
EXTD=
EXTT0=
EXTT1=
EXTT2=
EXTT3=
EXTT4=
EXTT5=
EXTT6=
EXTT7=
EXTT8=
EXTT9=
PLAYORDER=
